<?xml version="1.0" standalone="no"?>
<!DOCTYPE svg PUBLIC "-//W3C//DTD SVG 20010904//EN"
 "http://www.w3.org/TR/2001/REC-SVG-20010904/DTD/svg10.dtd">
<svg version="1.0" xmlns="http://www.w3.org/2000/svg"
 width="700.000000pt" height="700.000000pt" viewBox="0 0 700.000000 700.000000"
 preserveAspectRatio="xMidYMid meet">
<metadata>
Created by potrace 1.14, written by Peter Selinger 2001-2017
</metadata>
<g transform="translate(0.000000,700.000000) scale(0.100000,-0.100000)"
fill="#000000" stroke="none">
<path d="M391 6599 c-40 -10 -96 -31 -124 -46 -72 -39 -176 -145 -209 -215
-61 -126 -58 17 -57 -2333 0 -1515 3 -2165 11 -2200 26 -122 99 -234 198 -306
53 -39 125 -74 173 -85 9 -2 27 -7 40 -10 12 -3 765 -7 1673 -8 l1651 -1 244
-182 c588 -438 755 -563 764 -571 67 -56 264 -191 310 -213 168 -79 350 -49
462 75 41 46 101 146 88 146 -3 0 -1 8 4 18 19 36 24 106 26 407 2 171 3 312
4 315 1 3 203 5 449 6 407 0 454 2 517 19 147 39 273 143 332 273 56 121 53
-19 50 2337 l-2 2180 -23 64 c-56 154 -166 263 -328 323 l-59 22 -3061 2
c-2936 1 -3064 0 -3133 -17z m6118 -468 c21 -14 23 -4227 2 -4244 -10 -9 -187
-12 -675 -12 l-661 -1 -5 -471 -5 -472 -65 49 c-36 28 -69 53 -75 58 -13 10
-356 265 -745 555 -173 129 -328 245 -344 258 l-29 23 -1703 0 c-1308 1 -1706
4 -1715 13 -9 9 -12 495 -12 2110 0 1154 3 2108 7 2121 l7 22 3002 0 c1748 0
3008 -4 3016 -9z"/>
<path d="M1318 4425 c0 0 -2 -233 -3 -517 l-2 -518 518 0 518 0 -2 518 -2 517
-512 0 c-282 1 -514 1 -515 0z"/>
<path d="M2989 4415 c-1 -5 -3 -238 -3 -517 l-2 -508 517 0 517 0 -2 518 -1
517 -512 0 c-336 0 -514 -3 -514 -10z"/>
<path d="M4658 4420 c0 -3 -2 -236 -3 -517 l-1 -513 518 0 518 0 -2 517 -3
518 -512 0 c-282 0 -514 -2 -515 -5z"/>
</g>
</svg>
