<svg version="1.0" xmlns="http://www.w3.org/2000/svg" width="933.333" height="933.333" viewBox="0 0 700 700"><path d="M39.1 40.1c-4 1-9.6 3.1-12.4 4.6-7.2 3.9-17.6 14.5-20.9 21.5C-.3 78.8 0 64.5.1 299.5c0 151.5.3 216.5 1.1 220 2.6 12.2 9.9 23.4 19.8 30.6 5.3 3.9 12.5 7.4 17.3 8.5.9.2 2.7.7 4 1 1.2.3 76.5.7 167.3.8l165.1.1 24.4 18.2c58.8 43.8 75.5 56.3 76.4 57.1 6.7 5.6 26.4 19.1 31 21.3 16.8 7.9 35 4.9 46.2-7.5 4.1-4.6 10.1-14.6 8.8-14.6-.3 0-.1-.8.4-1.8 1.9-3.6 2.4-10.6 2.6-40.7.2-17.1.3-31.2.4-31.5.1-.3 20.3-.5 44.9-.6 40.7 0 45.4-.2 51.7-1.9 14.7-3.9 27.3-14.3 33.2-27.3 5.6-12.1 5.3 1.9 5-233.7l-.2-218-2.3-6.4c-5.6-15.4-16.6-26.3-32.8-32.3l-5.9-2.2-306.1-.2c-293.6-.1-306.4 0-313.3 1.7zm611.8 46.8c2.1 1.4 2.3 422.7.2 424.4-1 .9-18.7 1.2-67.5 1.2l-66.1.1-.5 47.1-.5 47.2-6.5-4.9c-3.6-2.8-6.9-5.3-7.5-5.8-1.3-1-35.6-26.5-74.5-55.5-17.3-12.9-32.8-24.5-34.4-25.8l-2.9-2.3H220.4c-130.8-.1-170.6-.4-171.5-1.3-.9-.9-1.2-49.5-1.2-211 0-115.4.3-210.8.7-212.1l.7-2.2h300.2c174.8 0 300.8.4 301.6.9z"/><path d="M131.8 257.5s-.2 23.3-.3 51.7l-.2 51.8h103.6l-.2-51.8-.2-51.7h-51.2c-28.2-.1-51.4-.1-51.5 0zm167.1 1c-.1.5-.3 23.8-.3 51.7l-.2 50.8h103.4l-.2-51.8-.1-51.7h-51.2c-33.6 0-51.4.3-51.4 1zm166.9-.5c0 .3-.2 23.6-.3 51.7l-.1 51.3H569l-.2-51.7-.3-51.8h-51.2c-28.2 0-51.4.2-51.5.5z"/></svg>